<mxfile host="app.diagrams.net" modified="2023-09-22T02:28:41.618Z" agent="Mozilla/5.0 (Windows NT 10.0; Win64; x64) AppleWebKit/537.36 (KHTML, like Gecko) Chrome/116.0.0.0 Safari/537.36" version="21.8.0" etag="7x1fhfklW0At8ey8kjlw" type="github">
  <diagram name="PÃ¡gina-1" id="WesZ0bZg-XxDdwwnHoDZ">
    <mxGraphModel>
      <root>
        <mxCell id="0" />
        <mxCell id="1" parent="0" />
      </root>
    </mxGraphModel>
  </diagram>
</mxfile>
